<svg width="56" height="58" viewBox="0 0 56 58" fill="none" xmlns="http://www.w3.org/2000/svg">
<path fill-rule="evenodd" clip-rule="evenodd" d="M27.2433 0.251709V7.79251C25.1856 7.73874 23.2002 7.46638 21.3143 7.00297C22.6702 4.38876 24.5472 2.09956 26.8032 0.277174C26.9494 0.266791 27.0961 0.258294 27.2433 0.251709ZM24.0724 0.700772C22.3638 2.41062 20.9247 4.39819 19.8258 6.59155C18.555 6.20044 17.3357 5.72082 16.177 5.1619C18.3109 3.00966 21.0284 1.43695 24.0724 0.700772ZM19.1905 7.97306C17.7736 7.52511 16.4149 6.97219 15.1269 6.32516C12.9169 9.01655 11.5343 12.4133 11.3682 16.1266H17.4176C17.5106 13.24 18.1334 10.4897 19.1905 7.97306ZM27.2433 9.30643C24.9605 9.24922 22.7523 8.93404 20.6559 8.3933C19.6327 10.7731 19.0264 13.3825 18.9319 16.1266H27.2433V9.30643ZM28.7568 16.1266V9.30643C31.0395 9.24922 33.2478 8.93403 35.3441 8.3933C36.3673 10.7731 36.9736 13.3825 37.0681 16.1266H28.7568ZM38.5824 16.1266C38.4894 13.24 37.8666 10.4897 36.8095 7.97306C38.2263 7.52512 39.585 6.97221 40.8731 6.32519C43.0831 9.01657 44.4656 12.4133 44.6317 16.1266H38.5824ZM36.1742 6.59155C37.445 6.20045 38.6643 5.72084 39.8229 5.16193C37.6891 3.00971 34.9716 1.43699 31.9277 0.700802C33.6363 2.41064 35.0754 4.3982 36.1742 6.59155ZM28.7568 7.79251C30.8144 7.73873 32.7998 7.46638 34.6857 7.00297C33.3298 4.38877 31.4528 2.09957 29.1968 0.277181C29.0507 0.266798 28.904 0.2583 28.7568 0.251715V7.79251ZM37.0681 17.6401H28.7568V24.4605C31.0395 24.5177 33.2478 24.8329 35.3441 25.3736C36.3673 22.9937 36.9736 20.3843 37.0681 17.6401ZM34.6857 26.764C32.7998 26.3006 30.8144 26.0282 28.7568 25.9744V33.5152C28.904 33.5086 29.0507 33.5001 29.1968 33.4897C31.4528 31.6674 33.3298 29.3782 34.6857 26.764ZM31.9277 33.0661C33.6363 31.3563 35.0754 29.3687 36.1742 27.1754C37.445 27.5665 38.6643 28.0461 39.8229 28.605C37.6891 30.7572 34.9716 32.3299 31.9277 33.0661ZM36.8095 25.7939C37.8666 23.2772 38.4895 20.5268 38.5824 17.6401H44.6317C44.4656 21.3535 43.0831 24.7503 40.8731 27.4417C39.585 26.7947 38.2263 26.2418 36.8095 25.7939ZM27.2433 33.5152C27.0961 33.5086 26.9494 33.5001 26.8032 33.4898C24.5472 31.6674 22.6702 29.3782 21.3143 26.764C23.2002 26.3006 25.1856 26.0282 27.2433 25.9744V33.5152ZM27.2433 24.4605C24.9605 24.5177 22.7523 24.8329 20.6559 25.3736C19.6327 22.9937 19.0264 20.3843 18.9319 17.6401H27.2433V24.4605ZM19.1905 25.7939C18.1334 23.2772 17.5105 20.5268 17.4176 17.6401H11.3682C11.5343 21.3535 12.9168 24.7503 15.1269 27.4418C16.4149 26.7947 17.7736 26.2418 19.1905 25.7939ZM16.177 28.605C18.3109 30.7573 21.0284 32.33 24.0724 33.0662C22.3637 31.3563 20.9247 29.3687 19.8258 27.1754C18.555 27.5665 17.3357 28.0461 16.177 28.605ZM46.9189 16.8835C46.9189 27.3321 38.4486 35.8024 28 35.8024C17.5514 35.8024 9.08108 27.3321 9.08108 16.8835C9.08108 13.8965 9.77332 11.0711 11.0061 8.55914H3.02703C1.35525 8.55914 0 9.91439 0 11.5862V44.8835C0 46.5552 1.35525 47.9105 3.02703 47.9105H20.4324V54.7213H15.1351C14.2992 54.7213 13.6216 55.3989 13.6216 56.2348C13.6216 57.0707 14.2992 57.7483 15.1351 57.7483H40.8649C41.7008 57.7483 42.3784 57.0707 42.3784 56.2348C42.3784 55.3989 41.7008 54.7213 40.8649 54.7213H35.5676V47.9105H52.973C54.6448 47.9105 56 46.5552 56 44.8835V11.5862C56 9.91439 54.6448 8.55914 52.973 8.55914H44.9939C46.2267 11.0711 46.9189 13.8965 46.9189 16.8835Z" fill="#EF3B3D"/>
<path fill-rule="evenodd" clip-rule="evenodd" d="M27.9993 35.8023C38.4479 35.8023 46.9182 27.332 46.9182 16.8834C46.9182 14.7661 46.5704 12.7301 45.9288 10.8293H53.729V40.3429H2.26953V10.8293H10.0697C9.42814 12.7301 9.08034 14.7661 9.08034 16.8834C9.08034 27.332 17.5506 35.8023 27.9993 35.8023Z" fill="#FFD7D7"/>
</svg>
