<?xml version="1.0" encoding="utf-8"?>
<!-- Generator: Adobe Illustrator 16.0.0, SVG Export Plug-In . SVG Version: 6.00 Build 0)  -->
<!DOCTYPE svg PUBLIC "-//W3C//DTD SVG 1.1//EN" "http://www.w3.org/Graphics/SVG/1.1/DTD/svg11.dtd">
<svg version="1.1" id="Layer_1" xmlns="http://www.w3.org/2000/svg" xmlns:xlink="http://www.w3.org/1999/xlink" x="0px" y="0px"
	 width="120px" height="60px" viewBox="0 0 120 60" enable-background="new 0 0 120 60" xml:space="preserve">
<g>
	<!-- <rect x="2.056" y="3.833" fill="#656668" width="9.29" height="6.544"/>
	<rect x="2.056" y="13.862" fill="#656668" width="9.29" height="28.294"/>
	<path fill="#656668" d="M31.343,33.287V20.092h7.496v-6.229h-7.496V3.907h-9.29v9.955h-5.859v6.229h5.859v14.305
		c0,5.12,0.845,8.394,9.659,8.394c2.06,0,5.544-0.318,7.285-0.529v-6.227c-1.478,0.104-2.903,0.209-4.54,0.209
		C32.029,36.243,31.343,35.505,31.343,33.287"/>
	<rect x="45.119" y="3.899" fill="#656668" width="2.428" height="38.257"/>
	<path fill="#656668" d="M71.294,14.565v2.168c6.365,1.342,9.555,6.582,9.555,11.908c0,6.177-4.275,12.247-12.826,12.247
		c-8.552,0-12.827-6.07-12.827-12.247c0-5.257,3.109-10.422,9.303-11.847V14.61c-7.481,1.43-11.731,7.41-11.731,14.031
		c0,7.602,5.597,14.357,15.256,14.357s15.255-6.756,15.255-14.357C83.277,21.945,78.932,15.908,71.294,14.565"/>
	<path fill="#656668" d="M103.058,39.728c-8.023,0-12.563-4.223-12.563-11.928c0-7.813,5.911-11.402,12.299-11.402
		c7.917,0,12.722,4.224,12.722,11.348C115.516,35.927,110.08,39.728,103.058,39.728 M115.516,15.13v5.491l-0.106-0.055
		c-2.585-4.962-7.758-6.281-12.615-6.281c-10.293,0-14.728,6.547-14.728,13.618c0,7.23,4.171,13.938,14.676,13.938
		c5.699,0,10.293-2.009,12.667-6.495h0.106v5.598c0,5.014-1.847,10.713-12.351,10.713c-7.92,0-10.982-2.691-11.562-6.967h-2.428
		c0.896,6.599,5.595,9.08,13.989,9.08c12.56,0,14.779-6.759,14.779-12.934V15.13H115.516z"/>
	<path fill="#EF3B3D" d="M69.288,20.991c0,0.825-0.624,1.494-1.393,1.494c-0.768,0-1.392-0.669-1.392-1.494V7.814
		c0-0.825,0.624-1.493,1.392-1.493c0.769,0,1.393,0.668,1.393,1.493V20.991z"/> -->
	<rect x="2.056" y="3.833" fill="#000000" width="9.29" height="6.544"/>
	<rect x="2.056" y="13.862" fill="#000000" width="9.29" height="28.294"/>
	<path fill="#000000" d="M31.343,33.287V20.092h7.496v-6.229h-7.496V3.907h-9.29v9.955h-5.859v6.229h5.859v14.305
		c0,5.12,0.845,8.394,9.659,8.394c2.06,0,5.544-0.318,7.285-0.529v-6.227c-1.478,0.104-2.903,0.209-4.54,0.209
		C32.029,36.243,31.343,35.505,31.343,33.287"/>
	<rect x="45.119" y="3.899" fill="#000000" width="2.428" height="38.257"/>
	<path fill="#000000" d="M71.294,14.565v2.168c6.365,1.342,9.555,6.582,9.555,11.908c0,6.177-4.275,12.247-12.826,12.247
		c-8.552,0-12.827-6.07-12.827-12.247c0-5.257,3.109-10.422,9.303-11.847V14.61c-7.481,1.43-11.731,7.41-11.731,14.031
		c0,7.602,5.597,14.357,15.256,14.357s15.255-6.756,15.255-14.357C83.277,21.945,78.932,15.908,71.294,14.565"/>
	<path fill="#000000" d="M103.058,39.728c-8.023,0-12.563-4.223-12.563-11.928c0-7.813,5.911-11.402,12.299-11.402
		c7.917,0,12.722,4.224,12.722,11.348C115.516,35.927,110.08,39.728,103.058,39.728 M115.516,15.13v5.491l-0.106-0.055
		c-2.585-4.962-7.758-6.281-12.615-6.281c-10.293,0-14.728,6.547-14.728,13.618c0,7.23,4.171,13.938,14.676,13.938
		c5.699,0,10.293-2.009,12.667-6.495h0.106v5.598c0,5.014-1.847,10.713-12.351,10.713c-7.92,0-10.982-2.691-11.562-6.967h-2.428
		c0.896,6.599,5.595,9.08,13.989,9.08c12.56,0,14.779-6.759,14.779-12.934V15.13H115.516z"/>
	<path fill="#EF3B3D" d="M69.288,20.991c0,0.825-0.624,1.494-1.393,1.494c-0.768,0-1.392-0.669-1.392-1.494V7.814
		c0-0.825,0.624-1.493,1.392-1.493c0.769,0,1.393,0.668,1.393,1.493V20.991z"/>
	<!-- <text transform="matrix(1 0 0 1 2.0562 54.4805)"><tspan x="0" y="0" fill="#6E6D6E" font-family="'HelveticaNeueLTPro-Md'" font-size="6.7451">For</tspan><tspan x="9.193" y="0" fill="#6E6D6E" font-family="'HelveticaNeueLTPro-Md'" font-size="6.7451"> </tspan><tspan x="10.583" y="0" fill="#6E6D6E" font-family="'HelveticaNeueLTPro-Md'" font-size="6.7451">the</tspan><tspan x="19.938" y="0" fill="#6E6D6E" font-family="'HelveticaNeueLTPro-Md'" font-size="6.7451"> </tspan><tspan x="21.328" y="0" fill="#6E6D6E" font-family="'HelveticaNeueLTPro-Md'" font-size="6.7451">intelligent</tspan><tspan x="50.148" y="0" fill="#6E6D6E" font-family="'HelveticaNeueLTPro-Md'" font-size="6.7451"> </tspan><tspan x="51.538" y="0" fill="#6E6D6E" font-family="'HelveticaNeueLTPro-Md'" font-size="6.7451">IT</tspan><tspan x="56.502" y="0" fill="#6E6D6E" font-family="'HelveticaNeueLTPro-Md'" font-size="6.7451"> </tspan><tspan x="57.892" y="0" fill="#6E6D6E" font-family="'HelveticaNeueLTPro-Md'" font-size="6.7451">world!</tspan></text> -->
</g>
</svg>
